<?xml version="1.0" encoding="UTF-8"?>
<svg width="598px" height="68px" viewBox="0 0 598 68" version="1.1" xmlns="http://www.w3.org/2000/svg" xmlns:xlink="http://www.w3.org/1999/xlink">
    <!-- Generator: Sketch 57.1 (83088) - https://sketch.com -->
    <title>dems_login_header</title>
    <desc>Created with Sketch.</desc>
    <g id="dems_login_header" stroke="none" stroke-width="1" fill="none" fill-rule="evenodd">
        <path d="M3.425,52.5 L3.425,16.9 L12.825,16.9 L12.825,44.9 L27.875,44.9 L27.875,52.5 L3.425,52.5 Z M44.375,52.9 C41.5416525,52.9 39.0750105,52.366672 36.975,51.3 C34.8749895,50.233328 33.258339,48.70001 32.125,46.7 C30.991661,44.69999 30.425,42.3500135 30.425,39.65 C30.425,36.9499865 30.991661,34.60001 32.125,32.6 C33.258339,30.59999 34.8749895,29.066672 36.975,28 C39.0750105,26.933328 41.5416525,26.4 44.375,26.4 C47.175014,26.4 49.6166563,26.9416612 51.7,28.025 C53.7833438,29.1083388 55.391661,30.6416568 56.525,32.625 C57.658339,34.6083432 58.225,36.9499865 58.225,39.65 C58.225,42.3500135 57.658339,44.6916567 56.525,46.675 C55.391661,48.6583433 53.7833438,50.1916612 51.7,51.275 C49.6166563,52.3583388 47.175014,52.9 44.375,52.9 Z M44.375,46.15 C47.641683,46.15 49.275,43.983355 49.275,39.65 C49.275,37.449989 48.8666707,35.8250052 48.05,34.775 C47.2333292,33.7249948 46.0083415,33.2 44.375,33.2 C42.708325,33.2 41.4583375,33.7249948 40.625,34.775 C39.7916625,35.8250052 39.375,37.449989 39.375,39.65 C39.375,41.8833445 39.7916625,43.5249948 40.625,44.575 C41.4583375,45.6250053 42.708325,46.15 44.375,46.15 Z M89.525,27.1 L89.525,50.9 C89.525,55.0666875 88.2750125,58.2416557 85.775,60.425 C83.2749875,62.6083443 79.6083575,63.7 74.775,63.7 C70.641646,63.7 67.0583485,62.966674 64.025,61.5 L65.375,54.9 C66.8750075,55.56667 68.4166587,56.0916647 70,56.475 C71.5833413,56.8583352 73.074993,57.05 74.475,57.05 C76.541677,57.05 78.0666617,56.6083378 79.05,55.725 C80.0333382,54.8416622 80.525,53.466676 80.525,51.6 L80.525,47.85 C79.6916625,48.9500055 78.5666737,49.8833295 77.15,50.65 C75.7333263,51.4166705 74.225008,51.8 72.625,51.8 C70.4583225,51.8 68.5166752,51.2750052 66.8,50.225 C65.0833247,49.1749948 63.7416715,47.6916763 62.775,45.775 C61.8083285,43.8583237 61.325,41.633346 61.325,39.1 C61.325,36.5999875 61.8083285,34.3916762 62.775,32.475 C63.7416715,30.5583237 65.0833247,29.066672 66.8,28 C68.5166752,26.933328 70.4583225,26.4 72.625,26.4 C74.325,26.4 75.874993,26.7499965 77.275,27.45 C78.675007,28.1500035 79.7583295,29.099994 80.525,30.3 L80.525,27.1 L89.525,27.1 Z M75.425,45.05 C77.025008,45.05 78.275,44.5250052 79.175,43.475 C80.0750045,42.4249947 80.525,40.966676 80.525,39.1 C80.525,37.299991 80.0750045,35.8750053 79.175,34.825 C78.275,33.7749948 77.025008,33.25 75.425,33.25 C73.824992,33.25 72.5666712,33.7666615 71.65,34.8 C70.7333287,35.8333385 70.275,37.2666575 70.275,39.1 C70.275,40.9333425 70.741662,42.383328 71.675,43.45 C72.608338,44.516672 73.8583255,45.05 75.425,45.05 Z M94.825,52.5 L94.825,27.1 L103.875,27.1 L103.875,52.5 L94.825,52.5 Z M94.575,14.65 L104.025,14.65 L104.025,22.8 L94.575,22.8 L94.575,14.65 Z M126.275,26.4 C129.275015,26.4 131.516659,27.3083242 133,29.125 C134.483341,30.9416757 135.225,33.683315 135.225,37.35 L135.225,52.5 L126.175,52.5 L126.175,37.75 C126.175,36.1833255 125.908336,35.0583367 125.375,34.375 C124.841664,33.6916632 124.008339,33.35 122.875,33.35 C121.508326,33.35 120.408338,33.8083287 119.575,34.725 C118.741663,35.6416712 118.325,36.8499925 118.325,38.35 L118.325,52.5 L109.275,52.5 L109.275,34.4 C109.275,31.666653 109.141668,29.233344 108.875,27.1 L117.375,27.1 L117.825,30.85 C118.791671,29.4166595 119.991659,28.3166705 121.425,27.55 C122.85834,26.7833295 124.474991,26.4 126.275,26.4 Z" id="Login" fill="#313355" fill-rule="nonzero"></path>
    </g>
</svg>