<?xml version="1.0" encoding="UTF-8"?>
<svg width="273px" height="70px" viewBox="0 0 273 70" version="1.1" xmlns="http://www.w3.org/2000/svg" xmlns:xlink="http://www.w3.org/1999/xlink">
    <!-- Generator: Sketch 57.1 (83088) - https://sketch.com -->
    <title>dems_logo</title>
    <desc>Created with Sketch.</desc>
    <g id="dems_logo" stroke="none" stroke-width="1" fill="none" fill-rule="evenodd">
        <g id="Group-2-Copy" transform="translate(1.000000, 4.500000)">
            <path d="M80.4148438,49.1621094 L80.4148438,14.6738281 C80.4148438,12.5878802 81.003705,10.9502013 82.1814453,9.76074219 C83.3591856,8.57128312 85.0027238,7.9765625 87.1121094,7.9765625 L97.4832031,7.9765625 C103.717609,7.9765625 108.826933,9.4413916 112.811328,12.3710938 C115.729311,14.5039169 117.935344,17.3398261 119.429492,20.8789062 C120.92364,24.4179864 121.670703,28.132793 121.670703,32.0234375 C121.670703,36.5937729 120.768368,40.7011537 118.963672,44.3457031 C117.158975,47.9902526 114.54572,50.8437397 111.123828,52.90625 C107.701936,54.9687603 103.682445,56 99.0652344,56 L86.9714844,55.859375 C84.9206929,55.859375 83.3152402,55.2646544 82.1550781,54.0751953 C80.9949161,52.8857362 80.4148438,51.2480573 80.4148438,49.1621094 Z M91.4363281,46.4199219 L96.903125,46.4199219 C101.004708,46.4199219 104.07499,45.3418077 106.114063,43.1855469 C108.657044,40.5136585 109.928516,36.7929926 109.928516,32.0234375 C109.928516,26.9374746 108.463687,23.1230596 105.533984,20.5800781 C103.342567,18.6113183 100.055491,17.6269531 95.6726563,17.6269531 L91.4363281,17.6269531 L91.4363281,46.4199219 Z M137.649219,41.234375 C138.387504,43.3554794 139.442181,44.8906203 140.813281,45.8398438 C142.289851,46.9531306 143.948038,47.5097656 145.787891,47.5097656 C147.850401,47.5097656 149.842569,47.0293017 151.764453,46.0683594 L154.787891,44.5566406 C155.291799,44.2988268 155.965621,44.1289067 156.809375,44.046875 C157.559379,44.046875 158.291793,44.2460918 159.006641,44.6445312 C159.721488,45.0429707 160.289842,45.5820279 160.711719,46.2617188 C161.133596,46.9414096 161.344531,47.6445276 161.344531,48.3710938 C161.344531,50.3515724 159.926577,52.1503825 157.090625,53.7675781 C153.633576,55.736338 149.672679,56.7207031 145.207813,56.7207031 C142.27811,56.7207031 139.509583,56.1464901 136.902148,54.9980469 C134.294714,53.8496036 132.071103,52.1679798 130.23125,49.953125 C127.594518,46.7538903 126.276172,42.6230722 126.276172,37.5605469 C126.276172,34.18553 127.075969,31.056655 128.675586,28.1738281 C130.275203,25.2910012 132.472447,23.0029382 135.267383,21.3095703 C138.062319,19.6162025 141.13553,18.7695312 144.487109,18.7695312 C147.698063,18.7695312 150.645299,19.5663983 153.328906,21.1601562 C156.012513,22.7539142 158.116008,24.9101427 159.639453,27.6289062 C161.162898,30.3476698 161.924609,33.277328 161.924609,36.4179688 C161.924609,38.0937584 161.57598,39.3154258 160.878711,40.0830078 C160.181442,40.8505898 159.018368,41.234375 157.389453,41.234375 L137.649219,41.234375 Z M151.553516,34.0449219 C150.42851,29.626931 148.02619,27.4179688 144.346484,27.4179688 C141.100374,27.4179688 138.750789,29.626931 137.297656,34.0449219 L151.553516,34.0449219 Z M181.506641,27.6289062 L177.7625,51.4648438 C177.446092,53.105477 176.734185,54.3798783 175.626758,55.2880859 C174.51933,56.1962936 173.098446,56.6503906 171.364063,56.6503906 C169.864055,56.6503906 168.730277,56.0293031 167.962695,54.7871094 C167.195113,53.5449157 166.811328,51.8632919 166.811328,49.7421875 L172.717578,13.5839844 C173.069142,11.5800681 173.789838,10.0976611 174.879688,9.13671875 C176.309382,7.92968146 177.944131,7.32617188 179.783984,7.32617188 C181.483212,7.32617188 182.989056,7.71874607 184.301563,8.50390625 C185.614069,9.28906643 186.504685,10.4550704 186.973438,12.0019531 L195.041797,36.6992188 L202.459766,13.0214844 C202.998831,11.39257 203.907025,10.0361382 205.184375,8.95214844 C206.461725,7.86815864 207.926554,7.32617188 209.578906,7.32617188 C211.371884,7.32617188 212.989055,7.84472138 214.430469,8.88183594 C215.871882,9.9189505 216.727342,11.2988195 216.996875,13.0214844 L223.412891,49.5839844 C223.412891,54.2949454 221.924624,56.6503906 218.948047,56.6503906 C216.381628,56.6503906 214.629692,56.0000065 213.692188,54.6992188 C213.000778,53.7499953 212.520314,52.2617289 212.250781,50.234375 L208.506641,27.6289062 L201.739063,50.1640625 C201.282029,51.722664 200.854299,52.9296832 200.455859,53.7851562 C200.05742,54.6406293 199.45391,55.3437472 198.645313,55.8945312 C197.836715,56.4453153 196.729304,56.7207031 195.323047,56.7207031 C193.647257,56.7207031 192.33477,56.2812544 191.385547,55.4023438 C190.436323,54.5234331 189.686331,53.2109462 189.135547,51.4648438 L181.506641,27.6289062 Z M228.299609,22.1621094 C228.299609,19.0800627 229.108195,16.3730585 230.725391,14.0410156 C232.342586,11.7089727 234.492955,9.92188121 237.176563,8.6796875 C239.86017,7.43749379 242.713657,6.81640625 245.737109,6.81640625 C247.553525,6.81640625 249.490029,7.01269335 251.54668,7.40527344 C253.603331,7.79785353 255.393352,8.49804184 256.916797,9.50585938 C258.440242,10.5136769 259.201953,11.8730383 259.201953,13.5839844 C259.201953,15.0839919 258.727348,16.3613229 257.778125,17.4160156 C256.828902,18.4707084 255.621882,18.9980469 254.157031,18.9980469 C253.524216,18.9980469 252.97344,18.9218758 252.504688,18.7695312 L250.483203,18.0488281 C248.737101,17.4277313 247.078914,17.1171875 245.508594,17.1171875 C244.137493,17.1171875 242.883599,17.4628872 241.746875,18.1542969 C240.610151,18.8457066 240.041797,19.8183531 240.041797,21.0722656 C240.041797,23.0410255 241.530063,24.4121055 244.506641,25.1855469 L247.459766,25.9765625 C252.100414,27.230475 255.780065,28.9267471 258.498828,31.0654297 C261.217592,33.2041123 262.576953,36.3066203 262.576953,40.3730469 C262.576953,45.3418217 261.211732,49.2558451 258.48125,52.1152344 C256.852336,53.8847745 254.810364,55.1796834 252.355273,56 C249.900183,56.8203166 247.330873,57.2304688 244.647266,57.2304688 C239.748804,57.2304688 235.547674,56.3867272 232.04375,54.6992188 C230.813275,54.1132783 229.823051,53.3164062 229.073047,52.3085938 C228.323043,51.3007762 227.948047,50.1523502 227.948047,48.8632812 C227.948047,47.5976499 228.422652,46.4550832 229.371875,45.4355469 C230.321098,44.4160105 231.428509,43.90625 232.694141,43.90625 C233.772271,43.90625 234.709762,44.0761702 235.506641,44.4160156 L239.321094,45.8398438 C241.172666,46.5664099 242.971476,46.9296875 244.717578,46.9296875 C246.287898,46.9296875 247.688275,46.4873091 248.91875,45.6025391 C250.149225,44.717769 250.764453,43.5019609 250.764453,41.9550781 C250.764453,40.3847578 250.166803,39.2128945 248.971484,38.4394531 C247.987104,37.8183563 247.026177,37.3525406 246.088672,37.0419922 C245.151167,36.7314438 243.545714,36.2363315 241.272266,35.5566406 C238.330845,34.7011676 235.96954,33.8046922 234.188281,32.8671875 C232.407022,31.9296828 230.980279,30.6025476 229.908008,28.8857422 C228.835737,27.1689367 228.299609,24.9277482 228.299609,22.1621094 Z" id="DeMS" fill="#313355" fill-rule="nonzero"></path>
            <rect id="Rectangle" fill="#313355" transform="translate(146.000000, 13.000000) rotate(-270.000000) translate(-146.000000, -13.000000) " x="143" y="-2" width="6" height="30" rx="3"></rect>
            <g id="Group" transform="translate(0.245000, 0.340000)">
                <path d="M41.1903353,19.74 C41.2263722,19.7417325 41.2620626,19.7434651 41.299139,19.7434651 C50.0567989,19.881722 57.181017,27.1199415 57.181017,35.8796805 C57.181017,46.5895702 45.7379149,57.4342519 41.1903353,61.32 C40.8864472,61.0601185 40.5496407,60.7673187 40.1892717,60.4464517 C40.1830346,60.4409075 40.1774904,60.4364029 40.1722928,60.4312053 C35.139601,55.9591645 25.2,45.8622486 25.2,35.8796805 C25.1996535,27.1199415 32.3245646,19.8820686 41.0815315,19.7434651 C41.1182615,19.7434651 41.1542984,19.7417325 41.1903353,19.74 Z M41.3421061,25.8922613 C36.7206769,25.8922613 32.9742684,29.6386699 32.9742684,34.260099 C32.9742684,38.8815282 36.7206769,42.6279367 41.3421061,42.6279367 C45.9635352,42.6279367 49.7099437,38.8815282 49.7099437,34.260099 C49.7099437,29.6386699 45.9635352,25.8922613 41.3421061,25.8922613 Z" id="Combined-Shape" fill="#E26153" fill-rule="nonzero"></path>
                <path d="M15.9903353,19.74 C16.0263722,19.7417325 16.0620626,19.7434651 16.099139,19.7434651 C24.8567989,19.881722 31.981017,27.1199415 31.981017,35.8796805 C31.981017,46.5895702 20.5379149,57.4342519 15.9903353,61.32 C15.6864472,61.0601185 15.3496407,60.7673187 14.9892717,60.4464517 C14.9830346,60.4409075 14.9774904,60.4364029 14.9722928,60.4312053 C9.93960099,55.9591645 6.75015599e-14,45.8622486 6.75015599e-14,35.8796805 C-0.000346508663,27.1199415 7.12456461,19.8820686 15.8815315,19.7434651 C15.9182615,19.7434651 15.9542984,19.7417325 15.9903353,19.74 Z M16.1421061,25.8922613 C11.5206769,25.8922613 7.77426836,29.6386699 7.77426836,34.260099 C7.77426836,38.8815282 11.5206769,42.6279367 16.1421061,42.6279367 C20.7635352,42.6279367 24.5099437,38.8815282 24.5099437,34.260099 C24.5099437,29.6386699 20.7635352,25.8922613 16.1421061,25.8922613 Z" id="Combined-Shape" fill="#313355" fill-rule="nonzero"></path>
                <circle id="Oval" fill="#313355" cx="15.9905085" cy="7.42497187" r="7.42497187"></circle>
                <circle id="Oval" fill="#E26153" cx="41.1905085" cy="7.42497187" r="7.42497187"></circle>
            </g>
        </g>
    </g>
</svg>